<?xml version="1.0" encoding="utf-8"?>
<!-- Generator: Adobe Illustrator 22.1.0, SVG Export Plug-In . SVG Version: 6.00 Build 0)  -->
<svg version="1.1" id="Layer_1" xmlns="http://www.w3.org/2000/svg" xmlns:xlink="http://www.w3.org/1999/xlink" x="0px" y="0px"
	 viewBox="0 0 32 32" style="enable-background:new 0 0 32 32;" xml:space="preserve">
<title>visa</title>
<path d="M23.3,11.5c-0.5-0.2-1.3-0.4-2.3-0.4c-2.6,0-4.4,1.3-4.4,3.1c0,1.4,1.3,2.1,2.3,2.6c1,0.5,1.3,0.8,1.3,1.2
	c0,0.6-0.8,0.9-1.5,0.9c-1,0-1.6-0.1-2.4-0.5l-0.3-0.2l-0.4,2.1c0.6,0.3,1.7,0.5,2.9,0.5c2.7,0,4.5-1.3,4.5-3.3
	c0-1.1-0.7-1.9-2.2-2.6c-0.9-0.4-1.5-0.7-1.5-1.2c0-0.4,0.5-0.8,1.5-0.8c0.9,0,1.5,0.2,1.9,0.4l0.2,0.1L23.3,11.5L23.3,11.5z
	 M29.9,11.3h-2c-0.6,0-1.1,0.2-1.4,0.8l-3.8,8.7h2.7l0.5-1.4l3.3,0c0.1,0.3,0.3,1.4,0.3,1.4H32L29.9,11.3z M12.9,11.2h2.6l-1.6,9.5
	h-2.6L12.9,11.2L12.9,11.2z M6.3,16.4l0.3,1.3l2.5-6.5h2.7l-4.1,9.5H5l-2.2-8c0-0.1-0.1-0.2-0.2-0.3C1.8,12,0.9,11.7,0,11.5l0-0.2
	h4.2c0.6,0,1,0.2,1.2,0.8L6.3,16.4L6.3,16.4z M26.7,17.4l1-2.7c0,0,0.2-0.5,0.3-0.9l0.2,0.8l0.6,2.7L26.7,17.4L26.7,17.4z"/>
</svg>
